<?xml version="1.0" encoding="UTF-8" standalone="no"?>
<!-- Created with Inkscape (http://www.inkscape.org/) -->

<svg
   xmlns:dc="http://purl.org/dc/elements/1.1/"
   xmlns:cc="http://creativecommons.org/ns#"
   xmlns:rdf="http://www.w3.org/1999/02/22-rdf-syntax-ns#"
   xmlns:svg="http://www.w3.org/2000/svg"
   xmlns="http://www.w3.org/2000/svg"
   xmlns:xlink="http://www.w3.org/1999/xlink"
   xmlns:sodipodi="http://sodipodi.sourceforge.net/DTD/sodipodi-0.dtd"
   xmlns:inkscape="http://www.inkscape.org/namespaces/inkscape"
   width="210mm"
   height="297mm"
   id="svg2"
   version="1.1"
   inkscape:version="0.48.2 r9819"
   sodipodi:docname="gracias.pdf">
  <defs
     id="defs4" />
  <sodipodi:namedview
     id="base"
     pagecolor="#ffffff"
     bordercolor="#666666"
     borderopacity="1.0"
     inkscape:pageopacity="0.0"
     inkscape:pageshadow="2"
     inkscape:zoom="2.8"
     inkscape:cx="345.2383"
     inkscape:cy="515.75312"
     inkscape:document-units="px"
     inkscape:current-layer="layer1"
     showgrid="false"
     inkscape:window-width="1600"
     inkscape:window-height="838"
     inkscape:window-x="-8"
     inkscape:window-y="-8"
     inkscape:window-maximized="1" />
  <metadata
     id="metadata7">
    <rdf:RDF>
      <cc:Work
         rdf:about="">
        <dc:format>image/svg+xml</dc:format>
        <dc:type
           rdf:resource="http://purl.org/dc/dcmitype/StillImage" />
        <dc:title></dc:title>
      </cc:Work>
    </rdf:RDF>
  </metadata>
  <g
     inkscape:label="Capa 1"
     inkscape:groupmode="layer"
     id="layer1">
    <path
       sodipodi:type="inkscape:offset"
       inkscape:radius="1.4725378"
       inkscape:original="M 458.03125 479.53125 C 453.96923 483.57573 450.93066 485.59379 448.90625 485.59375 C 451.54882 490.87015 452.87499 494.17288 452.875 495.5 L 452.875 512.75 L 458.03125 508.65625 L 458.03125 479.53125 z M 353.28125 484.0625 C 349.42599 484.27616 346.19512 485.37427 343.5625 487.34375 C 338.05105 491.45211 335.47337 496.84724 335.84375 503.53125 C 336.07899 507.77654 337.53193 511.31412 340.21875 514.15625 C 343.07376 517.14893 346.62866 518.51655 350.875 518.28125 C 355.31318 518.03532 360.13449 515.42025 365.3125 510.4375 L 365.1875 508.21875 C 361.00332 511.56889 357.15289 513.3375 353.65625 513.53125 C 350.00859 513.73338 347.00897 512.50248 344.65625 509.84375 C 342.45528 507.36173 341.24336 504.203 341.03125 500.375 C 340.82935 496.73157 341.58569 493.67649 343.28125 491.15625 C 345.13794 488.41259 347.80365 486.941 351.25 486.75 C 353.63736 486.61775 355.69671 487.08957 357.4375 488.15625 C 359.3217 489.30655 360.44418 491.12843 360.8125 493.65625 L 363.625 493.5 L 363.15625 485.21875 C 359.89167 484.26806 356.6007 483.8786 353.28125 484.0625 z M 294.15625 486.09375 L 277.875 486.53125 L 277.9375 488.71875 C 279.59491 488.70967 280.62718 488.91148 281.0625 489.34375 C 281.49781 489.77609 281.74387 490.68139 281.78125 492.03125 L 282.375 513.40625 C 282.41274 514.76979 282.22134 515.68955 281.8125 516.15625 C 281.40365 516.62296 280.3778 516.90497 278.71875 516.96875 L 278.78125 519.125 L 292.03125 518.78125 L 291.96875 516.59375 C 289.43044 516.58209 288.12386 515.46693 288.0625 513.25 L 287.71875 501.53125 L 296.90625 516.28125 C 297.95314 517.8217 299.17771 518.57046 300.59375 518.53125 L 307.09375 518.34375 L 307.03125 516.1875 C 304.78252 516.1258 302.41788 514.29974 299.9375 510.6875 L 294.28125 502.75 C 299.43605 499.67961 301.96055 496.03225 301.84375 491.8125 C 301.73414 487.85418 299.18525 485.95456 294.15625 486.09375 z M 402.34375 487.875 L 400.09375 487.90625 L 390.1875 514.1875 C 388.8162 517.84748 387.17868 519.74391 385.21875 519.875 L 385.21875 522.03125 L 397.40625 521.875 L 397.375 519.65625 L 395.53125 519.6875 C 394.82355 519.6973 394.25123 519.4941 393.8125 519.09375 C 393.37375 518.69341 393.13508 518.13495 393.125 517.40625 C 393.10404 515.89218 393.59979 513.67488 394.59375 510.75 L 404.5625 510.625 L 407.53125 518.84375 C 407.58153 518.98799 407.59223 519.11061 407.59375 519.21875 C 407.59659 519.4256 407.66073 519.53249 407.75 519.53125 L 406.625 519.53125 L 406.65625 521.71875 L 416.625 521.59375 L 416.59375 519.4375 C 415.25737 519.40034 414.16112 518.64953 413.28125 517.21875 C 412.76001 516.36062 412.18296 515.07638 411.5625 513.34375 L 402.34375 487.875 z M 290.625 488.34375 C 292.2247 488.2995 293.48432 489.08698 294.4375 490.65625 C 295.26937 492.01884 295.72939 493.6274 295.78125 495.5 C 295.87998 499.06684 294.65367 500.86752 292.125 500.9375 C 290.86222 500.97248 289.36737 500.42226 287.65625 499.25 L 287.40625 489.4375 C 288.3297 488.75751 289.40001 488.3777 290.625 488.34375 z M 261.90625 488.46875 C 258.4146 488.63804 255.32822 489.5835 252.625 491.3125 C 249.77625 493.14114 247.60488 495.56183 246.125 498.5625 C 244.64512 501.56323 243.99208 504.73828 244.15625 508.125 C 244.29413 510.9695 244.957 513.49705 246.1875 515.71875 C 247.35736 517.81725 248.95093 519.44348 250.9375 520.5625 C 253.31567 522.12618 255.69501 522.83503 258.09375 522.71875 C 260.19773 522.61676 262.37145 521.84179 264.59375 520.40625 C 264.78478 520.29186 265.08749 520.06407 265.53125 519.71875 C 266.75325 518.79429 267.77877 518.32076 268.59375 518.28125 C 270.34006 518.19661 271.33924 519.60814 271.5625 522.5 L 273.875 522.375 L 273.375 511.71875 C 273.33709 510.93737 273.4066 510.35946 273.59375 509.96875 C 274.038 509.2008 274.74425 508.75473 275.71875 508.6875 L 275.625 506.53125 L 262.1875 507.1875 L 262.28125 509.375 L 263.75 509.28125 C 266.49063 509.14842 267.8958 510.16342 268 512.3125 C 268.08402 514.04627 267.42669 515.4772 266 516.625 C 264.67768 517.69311 263.08233 518.28619 261.25 518.375 C 257.76779 518.5438 254.88219 517.11499 252.59375 514.0625 C 250.56214 511.32034 249.46356 508.04245 249.28125 504.28125 C 249.10879 500.72357 249.91132 497.73722 251.71875 495.3125 C 253.63857 492.73416 256.33073 491.38453 259.75 491.21875 C 262.06375 491.10663 264.06383 491.57526 265.75 492.65625 C 267.53638 493.81024 268.64314 495.63376 269.0625 498.125 L 271.90625 498 L 271.5 489.65625 C 267.7883 488.73443 264.59024 488.33868 261.90625 488.46875 z M 324.125 492.25 L 312.96875 518.03125 C 311.42185 521.62054 309.65148 523.43271 307.6875 523.46875 L 307.625 525.625 L 319.8125 526.03125 L 319.875 523.84375 L 318 523.78125 C 317.29266 523.75677 316.73133 523.51488 316.3125 523.09375 C 315.89365 522.67263 315.69353 522.10333 315.71875 521.375 C 315.77112 519.86169 316.36559 517.68582 317.5 514.8125 L 327.5 515.15625 L 330.0625 523.5 C 330.10574 523.6465 330.12872 523.76691 330.125 523.875 C 330.11782 524.08175 330.16077 524.18442 330.25 524.1875 L 329.125 524.15625 L 329.03125 526.34375 L 339 526.6875 L 339.09375 524.53125 C 337.76074 524.42943 336.68457 523.65921 335.875 522.1875 C 335.39592 521.30514 334.87959 519.97939 334.34375 518.21875 L 326.375 492.3125 L 324.125 492.25 z M 433.90625 492.46875 C 431.09438 492.42987 428.53973 493.22563 426.25 494.84375 C 423.66841 496.68158 422.35047 498.97517 422.3125 501.71875 C 422.29894 502.69841 422.49128 503.63077 422.90625 504.53125 C 423.35853 505.54256 423.96237 506.39674 424.71875 507.0625 C 425.7449 507.96413 427.33082 509.12087 429.4375 510.5625 C 431.89368 512.2453 433.44797 513.41742 434.09375 514.03125 C 435.62125 515.50901 436.36666 517.06189 436.34375 518.71875 C 436.32164 520.31473 435.82071 521.55435 434.8125 522.46875 C 433.80425 523.38316 432.49906 523.83455 430.90625 523.8125 C 428.89237 523.78463 427.24348 522.9151 425.96875 521.15625 C 424.7815 519.52569 424.18401 517.44697 424.21875 514.9375 L 421.375 514.90625 L 421.25 524.625 C 424.20452 525.81374 426.78953 526.43773 429.03125 526.46875 C 432.02054 526.51012 434.76528 525.5823 437.25 523.6875 C 439.97654 521.61857 441.36579 519.10961 441.40625 516.1875 C 441.43297 514.25554 440.69173 512.50316 439.1875 510.9375 C 438.48257 510.19578 436.97406 509.03894 434.6875 507.46875 C 432.14302 505.71441 430.52182 504.53737 429.84375 503.90625 C 428.083 502.28248 427.22857 500.70395 427.25 499.15625 C 427.26682 497.9404 427.67152 496.93745 428.5 496.1875 C 429.33123 495.46496 430.37471 495.10816 431.59375 495.125 C 433.27056 495.14824 434.634 495.88125 435.6875 497.3125 C 436.65659 498.61767 437.18231 500.37678 437.28125 502.5625 L 440.15625 502.59375 L 440.28125 494 C 437.54235 493.01381 435.42661 492.48983 433.90625 492.46875 z M 369.03125 493.09375 L 368.96875 495.28125 C 370.62282 495.38678 371.62636 495.66312 372.03125 496.125 C 372.43613 496.58695 372.6185 497.49559 372.5625 498.84375 L 371.6875 520.21875 C 371.63088 521.58164 371.37816 522.50021 370.9375 522.9375 C 370.49683 523.3748 369.44074 523.55107 367.78125 523.5 L 367.6875 525.6875 L 380.875 526.21875 L 380.96875 524.0625 C 378.47089 523.87677 377.25169 522.68462 377.34375 520.46875 L 378.25 499.09375 C 378.30652 497.733 378.53981 496.82673 378.96875 496.40625 C 379.39766 495.98584 380.44368 495.78053 382.125 495.8125 L 382.21875 493.65625 L 369.03125 493.09375 z M 230 494.03125 C 228.9453 494.03129 228.03417 494.41996 227.28125 495.1875 C 226.52831 495.95511 226.15624 496.84183 226.15625 497.84375 C 226.15624 498.8516 226.53198 499.73612 227.28125 500.5 C 228.03051 501.26395 228.94579 501.65628 230.03125 501.65625 C 231.08886 501.65628 231.9868 501.26248 232.75 500.5 C 233.51317 499.73758 233.90624 498.85453 233.90625 497.84375 C 233.90624 496.8389 233.51683 495.95365 232.75 495.1875 C 231.98314 494.42142 231.07372 494.03129 230 494.03125 z M 399.6875 496.03125 L 403.84375 508.125 L 395.28125 508.21875 L 399.6875 496.03125 z M 323.34375 500.34375 L 326.90625 512.625 L 318.3125 512.3125 L 323.34375 500.34375 z M 232.625 502.40625 L 227.46875 506.5 L 227.46875 535.625 C 231.52929 531.58057 234.56786 529.5625 236.59375 529.5625 C 233.95116 524.30665 232.62499 521.00392 232.625 519.65625 L 232.625 502.40625 z M 455.46875 513.53125 C 454.41112 513.53126 453.51317 513.89381 452.75 514.65625 C 451.98681 515.41871 451.59374 516.30177 451.59375 517.3125 C 451.59374 518.33204 451.99047 519.24122 452.75 520 C 453.50951 520.75879 454.41161 521.125 455.5 521.125 C 456.55467 521.125 457.46581 520.73633 458.21875 519.96875 C 458.97166 519.20118 459.34373 518.31446 459.34375 517.3125 C 459.34373 516.31935 458.97533 515.45875 458.21875 514.6875 C 457.46214 513.91627 456.53954 513.53126 455.46875 513.53125 z "
       xlink:href="#text2985"
       style="font-size:51.61373137999999700px;font-style:normal;font-variant:normal;font-weight:bold;font-stretch:normal;text-align:center;line-height:125%;letter-spacing:0px;word-spacing:0px;writing-mode:lr-tb;text-anchor:middle;fill:#800000;fill-opacity:1;stroke:none;font-family:Andalus;-inkscape-font-specification:Andalus Bold"
       id="path2989"
       inkscape:href="#text2985"
       d="m 322.875,496.65625 a 1.472685,1.472685 0 0 0 -1.21875,0.9375 l -10.25,26.125 c -1.05528,2.70209 -2.17666,3.88134 -3.09375,4.3125 -1.35328,-0.47569 -3.00087,-1.83774 -4.84375,-4.6875 a 1.472685,1.472685 0 0 0 -0.0312,0 l -4.625,-6.875 c 4.61044,-2.96176 7.31247,-6.69435 7.3125,-11.09375 -2e-5,-2.29371 -0.80303,-4.33323 -2.4375,-5.625 -1.63447,-1.29177 -3.88229,-1.81248 -6.59375,-1.8125 l -16.25,0 a 1.472685,1.472685 0 0 0 -1.46875,1.46875 l 0,2.1875 a 1.472685,1.472685 0 0 0 1.4375,1.46875 c 1.52998,0.034 2.32443,0.52336 2.09375,0.28125 -0.0953,-0.10001 0.21874,0.45258 0.21875,1.65625 l 0,21.40625 c -10e-6,1.2177 -0.34793,1.85574 -0.25,1.75 0.1223,-0.13205 0.0534,-0.0167 -0.3125,0.0625 -0.36592,0.0792 -0.97998,0.14797 -1.75,0.15625 a 1.472685,1.472685 0 0 0 -1.4375,1.46875 l 0,2.1875 a 1.472685,1.472685 0 0 0 1.46875,1.46875 l 13.21875,0 a 1.472685,1.472685 0 0 0 1.46875,-1.46875 l 0,-2.15625 a 1.472685,1.472685 0 0 0 -1.40625,-1.46875 c -1.05044,-0.0339 -1.62517,-0.27185 -1.90625,-0.53125 -0.28108,-0.2594 -0.46875,-0.63524 -0.46875,-1.46875 l 0,-6.25 6,10.28125 a 1.472685,1.472685 0 0 0 0.0312,0.0312 c 1.17344,1.83386 2.92139,3.03125 4.875,3.03125 l 5.03125,0 1.46875,0 10.71875,0 a 1.472685,1.472685 0 0 0 1.46875,-1.46875 l 0,-2.1875 A 1.472685,1.472685 0 0 0 319.875,528.375 l -1.875,0 c -0.40453,10e-6 -0.51296,-0.055 -0.6875,-0.21875 -0.13159,-0.12345 -0.18751,-0.19675 -0.1875,-0.625 -10e-6,-1.00478 0.5185,-2.99091 1.21875,-5.1875 l 7.78125,0 2.15625,6.28125 a 1.472685,1.472685 0 0 0 -0.625,1.21875 l 0,2.1875 A 1.472685,1.472685 0 0 0 329.125,533.5 l 9.96875,0 a 1.472685,1.472685 0 0 0 1.46875,-1.46875 l 0,-2.15625 a 1.472685,1.472685 0 0 0 -1.40625,-1.46875 c -0.818,-0.0341 -1.39764,-0.36338 -2.09375,-1.53125 l 0.0312,0 c -0.41756,-0.70937 -0.95203,-1.93417 -1.53125,-3.625 l -8.875,-25.59375 a 1.472685,1.472685 0 0 0 -1.40625,-1 l -2.25,0 a 1.472685,1.472685 0 0 0 -0.15625,0 z m 78.84375,0 a 1.472685,1.472685 0 0 0 -1.21875,0.9375 l -10.28125,26.125 c -0.67071,1.71738 -1.39958,2.94948 -2.0625,3.6875 -0.66292,0.73802 -1.15312,0.97168 -1.6875,1 a 1.472685,1.472685 0 0 0 -0.40625,0.0937 1.472685,1.472685 0 0 0 -0.0312,0 1.472685,1.472685 0 0 0 -0.40625,-0.0937 c -1.03084,-0.0337 -1.59539,-0.27172 -1.875,-0.53125 -0.27961,-0.25953 -0.46875,-0.63576 -0.46875,-1.46875 l 0,-21.40625 c -10e-6,-1.20775 0.31281,-1.78769 0.21875,-1.6875 -0.24508,0.26102 0.54081,-0.21505 2.09375,-0.25 a 1.472685,1.472685 0 0 0 1.4375,-1.46875 l 0,-2.1875 a 1.472685,1.472685 0 0 0 -1.46875,-1.46875 l -13.1875,0 a 1.472685,1.472685 0 0 0 -1.46875,1.46875 l 0,2.1875 a 1.472685,1.472685 0 0 0 1.4375,1.46875 c 1.53029,0.034 2.3231,0.52195 2.09375,0.28125 -0.095,-0.0997 0.21874,0.45336 0.21875,1.65625 l 0,21.40625 c -10e-6,1.21808 -0.34842,1.85613 -0.25,1.75 0.24313,-0.26218 -0.52247,0.20219 -2.0625,0.21875 a 1.472685,1.472685 0 0 0 -1.4375,1.46875 l 0,2.1875 A 1.472685,1.472685 0 0 0 372.375,533.5 l 13.1875,0 a 1.472685,1.472685 0 0 0 0.46875,-0.0937 1.472685,1.472685 0 0 0 0.5,0.0937 l 12.1875,0 a 1.472685,1.472685 0 0 0 1.46875,-1.46875 l 0,-2.1875 a 1.472685,1.472685 0 0 0 -1.46875,-1.46875 l -1.875,0 c -0.40453,10e-6 -0.56998,-0.0792 -0.71875,-0.21875 -0.13159,-0.12345 -0.18751,-0.19675 -0.1875,-0.625 -10e-6,-0.98792 0.54127,-2.98278 1.25,-5.1875 l 7.78125,0 2.15625,6.28125 a 1.472685,1.472685 0 0 0 -0.65625,1.21875 l 0,2.1875 A 1.472685,1.472685 0 0 0 407.9375,533.5 l 10,0 a 1.472685,1.472685 0 0 0 1.40625,-1.125 1.472685,1.472685 0 0 0 0.0625,0.0312 c 3.08694,1.19266 5.85178,1.8125 8.34375,1.8125 3.31048,0 6.38101,-1.11457 9.0625,-3.21875 2.95363,-2.30635 4.62498,-5.30664 4.625,-8.6875 -2e-5,-2.31598 -0.94359,-4.48444 -2.6875,-6.25 -0.90604,-0.92727 -2.44112,-2.03399 -4.78125,-3.59375 -2.55657,-1.71096 -4.22724,-2.93006 -4.71875,-3.375 a 1.472685,1.472685 0 0 0 -0.0312,0 c -1.60396,-1.43862 -2.15626,-2.63097 -2.15625,-3.625 -10e-6,-0.87478 0.21405,-1.39349 0.71875,-1.875 0.0102,-0.01 0.0208,-0.0215 0.0312,-0.0312 0.53904,-0.47081 1.14966,-0.68748 2.0625,-0.6875 1.26227,2e-5 2.08714,0.40885 2.9375,1.53125 a 1.472685,1.472685 0 0 0 0.0312,0.0312 c 0.76328,0.9988 1.22617,2.38703 1.34375,4.375 a 1.472685,1.472685 0 0 0 1.46875,1.375 l 2.90625,0 a 1.472685,1.472685 0 0 0 1.46875,-1.46875 l 0,-8.59375 a 1.472685,1.472685 0 0 0 -1,-1.40625 c -2.83578,-0.97695 -5.05881,-1.4687 -6.875,-1.46875 -3.09805,4e-5 -5.99633,0.92822 -8.5,2.75 -2.82698,2.07206 -4.4375,4.88915 -4.4375,8.09375 0,1.20906 0.26941,2.36607 0.78125,3.4375 0.54146,1.16711 1.27555,2.19269 2.21875,3 1.12845,0.96417 2.75712,2.10383 4.90625,3.53125 2.45195,1.6305 4.01447,2.83237 4.5,3.28125 1.32988,1.25826 1.84374,2.36497 1.84375,3.5625 -2e-5,1.30507 -0.31915,2.08386 -1,2.71875 -0.70583,0.65817 -1.60786,1.00001 -2.90625,1 -1.58321,10e-6 -2.69809,-0.57943 -3.78125,-2.03125 -0.98919,-1.31976 -1.53126,-3.03859 -1.53125,-5.3125 a 1.472685,1.472685 0 0 0 -1.46875,-1.46875 l -2.84375,0 a 1.472685,1.472685 0 0 0 -1.46875,1.46875 l 0,7.21875 A 1.472685,1.472685 0 0 0 418,528.40625 c -0.81895,-0.0341 -1.43693,-0.37686 -2.125,-1.53125 l 0.0312,0 c -0.41756,-0.70937 -0.95203,-1.93417 -1.53125,-3.625 l -8.84375,-25.59375 a 1.472685,1.472685 0 0 0 -1.40625,-1 l -2.25,0 a 1.472685,1.472685 0 0 0 -0.15625,0 z M 265.65625,497.25 c -3.71447,4e-5 -7.1078,0.83257 -10.125,2.5625 a 1.472685,1.472685 0 0 0 -0.0312,0 c -3.15343,1.81489 -5.62746,4.35082 -7.375,7.5 -1.73986,3.13537 -2.625,6.56111 -2.625,10.1875 0,3.04295 0.61591,5.849 1.84375,8.34375 1.15963,2.33983 2.83052,4.21329 4.9375,5.5625 0.0318,0.0232 0.0619,0.0396 0.0937,0.0625 2.46801,1.77552 5.12803,2.75 7.84375,2.75 2.39948,0 4.84671,-0.7569 7.28125,-2.15625 0.0155,-0.008 0.0468,-0.0226 0.0625,-0.0312 0.2861,-0.1567 0.60086,-0.36289 1.0625,-0.6875 1.14974,-0.78526 2.00464,-1.0625 2.28125,-1.0625 0.46865,0 0.51832,0.0407 0.75,0.40625 0.23168,0.36553 0.494,1.1987 0.53125,2.5 a 1.472685,1.472685 0 0 0 1.46875,1.4375 l 2.3125,0 a 1.472685,1.472685 0 0 0 1.46875,-1.46875 l 0,-10.65625 c -2e-5,-0.57095 0.0652,-0.84861 0.0937,-0.9375 1.1e-4,-3.4e-4 0.0311,3.4e-4 0.0312,0 0.22934,-0.34911 0.35368,-0.48806 0.9375,-0.5 a 1.472685,1.472685 0 0 0 1.4375,-1.46875 l 0,-2.15625 a 1.472685,1.472685 0 0 0 -1.46875,-1.46875 l -13.4375,0 a 1.472685,1.472685 0 0 0 -1.46875,1.46875 l 0,2.15625 a 1.472685,1.472685 0 0 0 1.46875,1.46875 l 1.4375,0 c 1.17544,10e-6 1.87138,0.25035 2.1875,0.5 0.31612,0.24965 0.46874,0.52052 0.46875,1.28125 -2e-5,1.31836 -0.44882,2.17538 -1.625,3.03125 -1.11797,0.81688 -2.36908,1.21876 -3.9375,1.21875 -3.03848,10e-6 -5.28827,-1.24067 -7.21875,-4.09375 -1.72893,-2.58666 -2.59376,-5.57509 -2.59375,-9.09375 -1e-5,-3.29939 0.84357,-5.85724 2.53125,-7.90625 1.78231,-2.16626 4.025,-3.18747 7.09375,-3.1875 2.06702,3e-5 3.6925,0.49374 5.0625,1.46875 1.38246,0.99111 2.17627,2.42777 2.4375,4.625 a 1.472685,1.472685 0 0 0 1.46875,1.28125 l 2.84375,0 a 1.472685,1.472685 0 0 0 1.46875,-1.46875 l 0,-8.375 A 1.472685,1.472685 0 0 0 275.625,498.9375 c -3.76427,-1.13096 -7.09001,-1.68746 -9.96875,-1.6875 z m 93.4375,0 c -4.08946,4e-5 -7.71167,0.96867 -10.71875,2.96875 -6.06076,4.0161 -9.25,9.82333 -9.25,16.9375 0,4.54175 1.37435,8.55977 4.125,11.8125 a 1.472685,1.472685 0 0 0 0,0.0312 c 2.93424,3.43802 6.91537,5.21875 11.53125,5.21875 4.96237,0 10.21597,-2.55656 15.8125,-7.375 a 1.472685,1.472685 0 0 0 0.5,-1.125 l 0,-2.21875 a 1.472685,1.472685 0 0 0 -2.3125,-1.1875 c -4.21122,3.00511 -7.86796,4.37501 -10.9375,4.375 -3.27633,10e-6 -5.66741,-1.14929 -7.625,-3.625 -1.84489,-2.32818 -2.78126,-5.14952 -2.78125,-8.71875 -10e-6,-3.39056 0.86359,-6.08579 2.46875,-8.21875 1.75709,-2.30996 3.9183,-3.37497 7,-3.375 2.16219,3e-5 3.84484,0.49687 5.25,1.46875 1.44963,0.99912 2.23845,2.40275 2.4375,4.625 a 1.472685,1.472685 0 0 0 1.46875,1.34375 l 2.84375,0 a 1.472685,1.472685 0 0 0 1.46875,-1.46875 l 0,-8.3125 a 1.472685,1.472685 0 0 0 -0.96875,-1.375 c -3.36065,-1.18399 -6.82332,-1.78121 -10.3125,-1.78125 z m 92.46875,3.5 a 1.472685,1.472685 0 0 0 -0.84375,0.4375 c -1.41123,1.40513 -2.65566,2.42214 -3.625,3.0625 -0.96934,0.64036 -1.66923,0.84375 -1.90625,0.84375 a 1.472685,1.472685 0 0 0 -1.3125,2.125 c 0.93637,1.86964 1.61362,3.38124 2.0625,4.5 0.44888,1.11876 0.625,1.95165 0.625,1.9375 l 0,12.375 a 1.472685,1.472685 0 0 0 0.15625,0.625 c -0.64093,0.75365 -1.06251,1.68389 -1.0625,2.65625 -10e-6,1.09089 0.47334,2.16161 1.25,2.9375 0.7838,0.78306 1.88188,1.25 3,1.25 1.09657,0 2.22682,-0.42992 3.03125,-1.25 0.76437,-0.77925 1.21873,-1.84645 1.21875,-2.9375 -2e-5,-1.08441 -0.44885,-2.15267 -1.21875,-2.9375 -0.46287,-0.47182 -1.05661,-0.7816 -1.6875,-1 l 1.40625,-1.125 a 1.472685,1.472685 0 0 0 0.5625,-1.15625 l 0,-20.875 A 1.472685,1.472685 0 0 0 451.5625,500.75 z m -158.03125,2.3125 c 1.12189,2e-5 1.7424,0.351 2.46875,1.625 0.64772,1.13014 0.99998,2.52045 1,4.1875 -10e-6,1.61194 -0.32653,2.64563 -0.6875,3.15625 -0.36097,0.51062 -0.70471,0.71876 -1.625,0.71875 -0.68521,10e-6 -1.71131,-0.40472 -2.9375,-1.1875 l 0,-7.96875 c 0.5409,-0.25873 1.0607,-0.53123 1.78125,-0.53125 z m -57.875,3.21875 c -1.09654,4e-5 -2.22683,0.42997 -3.03125,1.25 -0.76438,0.77928 -1.21875,1.84647 -1.21875,2.9375 0,1.09666 0.45859,2.16251 1.21875,2.9375 0.47048,0.4797 1.08506,0.79278 1.71875,1 l -1.4375,1.125 a 1.472685,1.472685 0 0 0 -0.5625,1.15625 l 0,20.875 a 1.472685,1.472685 0 0 0 2.5,1.03125 c 1.41066,-1.40506 2.62449,-2.4222 3.59375,-3.0625 0.96926,-0.6403 1.69957,-0.84375 1.9375,-0.84375 a 1.472685,1.472685 0 0 0 1.3125,-2.125 c -0.9361,-1.86182 -1.64526,-3.38223 -2.09375,-4.5 C 239.14526,526.94473 239,526.12567 239,526.125 l 0,-12.375 a 1.472685,1.472685 0 0 0 -0.15625,-0.625 c 0.64093,-0.75363 1.06249,-1.6839 1.0625,-2.65625 -1e-5,-1.07844 -0.46374,-2.15194 -1.25,-2.9375 -0.7934,-0.7926 -1.89451,-1.24996 -3,-1.25 z m 86.78125,4.40625 2.03125,6.21875 -4.40625,0 2.375,-6.21875 z m 78.8125,0 2.0625,6.21875 -4.4375,0 2.375,-6.21875 z" />
    <text
       xml:space="preserve"
       style="font-size:51.61373138px;font-style:normal;font-variant:normal;font-weight:bold;font-stretch:normal;text-align:center;line-height:125%;letter-spacing:0px;word-spacing:0px;writing-mode:lr-tb;text-anchor:middle;fill:#ff0000;fill-opacity:1;stroke:none;font-family:Andalus;-inkscape-font-specification:Andalus Bold"
       x="342.85715"
       y="535.2193"
       id="text2985"
       sodipodi:linespacing="125%"><tspan
         sodipodi:role="line"
         id="tspan2987"
         x="342.85715"
         y="535.2193"
         dy="-2.8571427 -6.4285717 -3.5714285 6.4285712 -7.1428571 7.1428571 -3.5714285 3.5714285 -17.857143"
         dx="0 -3.7751946e-008 7.949625e-009 1.7857141 -3.5714285 -1.0714285 3.5714285 2.5"
         rotate="0 357.22482 358.41418 1.9822682 356.82837 2.378722 359.20709 0.7929073 0"><tspan
   style="font-size:72px"
   id="tspan2991">ยก</tspan>GRACIAS<tspan
   style="font-size:72px"
   id="tspan2993"
   dy="-3.2142859"
   dx="0.71428567">!</tspan></tspan></text>
  </g>
</svg>
